<svg width="2560" height="808" viewBox="0 0 2560 808" fill="none" xmlns="http://www.w3.org/2000/svg">

<path d="M0 635.92V0H2559.68V645.92C2558.96 646.21 2558.18 646.4 2557.54 646.81C2551.27 650.94 2545.09 655.2 2538.73 659.18C2537.29 660.08 2535.28 660.27 2533.5 660.42C2528.06 660.88 2522.57 660.93 2517.15 661.55C2509.96 662.38 2503.39 664.68 2498.1 670.07C2493.12 675.15 2487.42 677.47 2479.76 676.24C2475.7 675.59 2470.72 677.63 2466.82 679.71C2460.03 683.33 2455.61 689.38 2453.26 696.8C2451.28 703.06 2447.23 707.61 2442.14 711.67C2439.3 713.94 2437.62 717.61 2435.08 720.34C2432.42 723.19 2429.77 726.64 2426.37 728.09C2417.93 731.68 2409.08 734.31 2400.37 737.23C2398.5 737.85 2396.46 737.93 2394.56 738.47C2392.24 739.12 2389.54 739.45 2387.77 740.87C2380.21 746.96 2372.78 753.24 2365.62 759.78C2359.73 765.17 2353.43 766.06 2346.32 762.38C2341.23 759.75 2336.17 757.61 2329.77 759.08C2324.75 760.24 2319.18 760.58 2314.42 755.92C2312.07 753.62 2307.6 753.36 2304 752.5C2301.78 751.97 2298.86 752.88 2297.19 751.75C2289.77 746.73 2282.28 749.56 2274.71 750.68C2267.7 751.72 2260.68 752.89 2253.63 753.33C2245.83 753.82 2237.86 752.72 2230.19 753.83C2221.97 755.01 2214.36 754.05 2206.82 751.25C2201.29 749.2 2195.92 746.71 2190.46 744.44C2186.55 742.81 2182.24 741.78 2178.81 739.46C2174.23 736.36 2170.33 732.25 2165.62 728.13C2163.01 731.5 2160.8 734.8 2158.12 737.66C2156.05 739.87 2153.57 742.79 2150.96 743.16C2144.78 744.03 2138.43 744.04 2132.65 740.34C2129.47 738.3 2125.53 737.46 2122.38 735.39C2117.87 732.44 2115.03 733.97 2111.7 737.4C2109.27 739.91 2106 742.78 2102.83 743.14C2095.49 743.98 2087.85 744.37 2080.98 740.35C2078.05 738.63 2075.72 739.45 2073.47 741.78C2069.19 746.22 2064.84 750.59 2060.38 754.84C2058.98 756.18 2057.2 757.96 2055.52 758.04C2047.5 758.43 2039.19 760.08 2032.03 754.41C2029.7 752.57 2027.19 750.88 2024.57 749.49C2017 745.46 2009.69 740.24 2001.58 738.14C1995.55 736.57 1990.04 734.66 1984.71 731.69C1983.85 731.21 1982.88 730.54 1981.97 730.57C1971.63 730.8 1963.65 726.74 1957.96 718.02C1957.47 717.27 1955.1 716.82 1954.29 717.33C1946.21 722.42 1939.07 721.03 1930.79 716.6C1917.93 709.7 1904.18 704.45 1890.8 698.53C1890.37 698.34 1889.75 698.59 1889.32 698.41C1884.08 696.2 1878.68 694.26 1873.67 691.61C1868.64 688.96 1864.53 685.19 1857.8 688.02C1854.81 689.28 1849.54 688.21 1846.75 686.2C1840.75 681.86 1835.87 675.99 1830.15 671.2C1827.32 668.83 1823.77 667.16 1820.32 665.73C1817.48 664.55 1814.21 664.42 1811.28 663.42C1805.6 661.47 1801.1 662.59 1797.03 667.19C1792.85 671.93 1787.56 675.77 1783.8 680.78C1777.87 688.67 1763.53 689.82 1755.72 684.11C1751.71 681.18 1749.01 681.62 1745.39 684.71C1735.34 693.28 1724.3 695.85 1711.23 688.43C1704.83 693.78 1697.73 699.21 1691.24 705.28C1684.94 711.17 1679.34 717.79 1673.3 723.97C1668.3 729.09 1663.93 735.76 1657.83 738.67C1646.71 743.97 1638.55 752 1632.87 762.07C1626.7 773.01 1616.45 778.55 1607.09 785.45C1605.9 786.33 1603.9 786.52 1602.33 786.38C1596.76 785.89 1591.11 785.56 1585.68 784.31C1581.51 783.35 1577.34 781.57 1573.7 779.29C1570.67 777.39 1568.45 774.22 1565.82 771.67C1560.54 766.57 1560.32 766.77 1554.03 770.5C1549.55 773.16 1544.71 775.21 1539.97 777.42C1536.49 779.04 1532.53 779.92 1529.47 782.1C1524.51 785.64 1520.08 789.94 1515.48 793.98C1510.22 798.59 1505.01 803.26 1499.78 807.9H1482.78C1479.4 802.92 1474.24 802.01 1468.92 802.54C1462.09 803.23 1457.98 799.59 1455.72 794.17C1452.75 787.03 1447.84 781.69 1442.62 776.3C1439.57 773.15 1437.5 773.48 1434.27 775.92C1430.81 778.53 1426.96 781.17 1422.86 782.27C1414.12 784.61 1409.32 779.12 1405.02 772.29C1400.99 765.89 1395.71 760.29 1391.36 754.08C1387.03 747.9 1381.7 748.45 1375.71 750.77C1367.9 753.8 1360.69 754.12 1354.71 746.67C1351.6 742.79 1347.52 739.71 1344.24 735.96C1340.79 732.03 1337.21 731.42 1332.89 734.23C1331.51 735.13 1329.89 735.72 1328.63 736.76C1322.87 741.51 1316.5 741.05 1309.77 739.6C1307.67 739.15 1304.74 739.41 1303.06 740.58C1283.95 753.93 1265.26 753.74 1246.6 739.7C1245.59 738.94 1242.84 739.07 1241.88 739.91C1232.54 748.1 1222.85 742.14 1219.47 733.13C1218.14 729.57 1216.93 725.75 1214.7 722.78C1206.16 711.44 1197.44 700.21 1188.34 689.31C1183.06 682.98 1178.09 676.54 1176.52 668.38C1175.48 662.95 1172.26 659.71 1168.36 656.65C1161.99 661.67 1151.97 663.44 1147.43 660C1137.82 652.73 1128.46 645.1 1118.85 637.83C1117.43 636.76 1115.18 636.44 1113.3 636.39C1107.25 636.24 1100.69 638.11 1095.76 633.17C1090.52 627.91 1085.21 622.55 1080.94 616.52C1070.84 602.24 1066.55 584.5 1054.52 571.28C1053.79 570.48 1053.48 569.24 1053.1 568.17C1050.52 560.83 1046.21 554.71 1040.61 549.31C1036.93 545.76 1033.51 543.61 1028.75 547.32C1027.6 548.22 1026.13 548.81 1024.72 549.26C1010.69 553.78 1000.56 563.13 992.1 574.85C990.1 577.62 986.57 581.08 983.72 581.1C976.87 581.15 972.81 584.74 968.35 588.89C966.3 590.8 963.05 592 960.19 592.37C948.82 593.86 939.4 589.67 931.62 581.47C928.94 578.65 925.93 577.61 922.23 579.43C916.92 582.05 911.47 584.4 906.31 587.29C900.1 590.76 890.35 590.83 886.47 586.04C881.34 579.71 875.29 577.83 867.35 578.29C860.18 578.71 852.93 577.2 846.05 580.66C841.77 582.82 837.21 584.43 832.89 586.51C815.32 594.97 797.66 603.26 780.31 612.14C772.14 616.33 764.23 618.94 756 613.48C752.94 611.45 750.42 611.03 747.29 612.41C741.41 614.99 735.18 616.61 728.91 615.33C722.45 614.01 716.89 616.23 711.16 618.13C698.93 622.18 686.72 626.32 674.56 630.56C662.56 634.75 650.38 638.56 638.72 643.55C627.57 648.32 616.31 651.5 604.18 651.48C596.52 651.46 588.56 650.19 581.25 651.79C564.64 655.44 551.49 647.55 538.12 640.51C531.01 636.77 524.63 631.55 518.15 626.7C512.21 622.25 505.95 619.49 498.35 620.41C496.93 620.58 495.38 620.17 493.97 619.75C484.47 616.89 474.94 614.1 465.54 610.96C461.39 609.57 458.33 609.65 455.1 613.24C450.73 618.09 441.81 618.75 435.63 616.1C429.3 613.39 422.89 610.42 416.21 609.09C406.14 607.09 396.41 608.41 388.86 616.67C384.05 621.94 379 627 374.28 632.35C371.45 635.55 368.95 639.07 366.47 642.56C358.89 653.21 350.33 661.69 335.63 660.59C326.35 659.89 316.97 660.63 307.65 660.38C303.73 660.28 299.74 659.62 295.93 658.67C270 652.17 245.1 641.85 218.46 637.89C201.01 635.3 183.7 631.48 166.17 629.69C144.45 627.48 122.56 626.89 100.76 625.43C89.06 624.64 77.39 623.23 65.68 622.69C62.77 622.56 58.71 623.86 56.97 625.98C50.89 633.36 43.3 637.22 34.03 638.13C22.58 639.26 10.82 644.64 0.01 635.91L0 635.92Z" fill="black"/>
</svg>
