<svg width="1081" height="2426" viewBox="0 0 1081 2426" fill="none" xmlns="http://www.w3.org/2000/svg">
<path d="M0.419983 2425.82C0.419983 1618.92 0.419983 812.02 0.419983 5.12047C9.73998 4.84047 19.06 4.46047 28.39 4.28047C101.35 2.89047 174.31 0.610469 247.28 0.400469C322.24 0.190469 397.23 1.41047 472.18 3.12047C535.8 4.57047 599.37 8.07047 662.99 9.83047C762.77 12.5905 862.57 12.8305 962.37 10.9405C1001.68 10.1905 1040.98 9.08047 1080.29 8.13047V2352.84C1079.46 2352.91 1078.64 2353.06 1077.81 2353.04C1043.02 2352.31 1008.22 2351.58 973.43 2350.82C972.27 2350.79 971.11 2350.48 969.96 2350.49C952.45 2350.67 934.73 2346.93 917.56 2353.47C915.42 2354.28 913.01 2354.42 910.72 2354.81C897.94 2356.98 885.15 2359.1 872.38 2361.28C843.56 2366.19 814.74 2371.13 785.92 2376.02C764.62 2379.64 743.32 2383.24 722.01 2386.8C717.83 2387.5 713.59 2387.8 709.41 2388.5C698.46 2390.34 687.56 2393.8 676.6 2393.94C643.79 2394.37 610.97 2393.52 578.16 2393.16C543.7 2392.78 509.23 2392.43 474.77 2391.99C467.46 2391.9 459.91 2392.59 452.87 2391.08C429.49 2386.03 406.28 2380.17 383.02 2374.57C330.76 2361.98 278.52 2349.33 226.24 2336.85C223.84 2336.28 220.88 2336.38 218.59 2337.26C204.01 2342.86 189.51 2348.69 175.05 2354.6C159.03 2361.14 143.09 2367.89 127.08 2374.46C103.85 2383.98 80.61 2393.46 57.35 2402.89C38.4 2410.58 19.41 2418.19 0.429983 2425.83L0.419983 2425.82Z" fill="black"/>
</svg>
