<svg width="2560" height="1147" viewBox="0 0 2560 1147" fill="none" xmlns="http://www.w3.org/2000/svg">
<path d="M0.129883 1134.1C0.129883 756.109 0.129883 378.11 0.129883 0.120117H6.13063C7.21077 0.490156 8.2609 1.07022 9.37104 1.19023C51.8763 5.97073 94.3416 11.1813 136.907 15.3317C185.623 20.0822 234.389 24.3727 283.205 27.993C331.871 31.5934 380.597 34.4737 429.323 37.014C476.399 39.4742 523.515 41.5745 570.631 42.9946C633.419 44.8848 696.237 45.5749 759.025 47.5051C817.052 49.2853 874.949 47.5651 932.796 43.1446C974.142 39.9843 1015.47 36.6539 1056.81 33.5236C1097.99 30.4033 1139.17 27.413 1180.36 24.4327C1213.23 22.0524 1246.1 19.4121 1279 17.5119C1324.9 14.8617 1370.81 12.5914 1416.74 10.5412C1453.85 8.88103 1490.99 7.5609 1528.12 6.52079C1582.42 4.99063 1636.72 2.8404 1691.03 2.76039C1787.17 2.61038 1883.32 3.7305 1979.46 4.55058C2000.28 4.7306 2021.09 5.7007 2041.89 6.6408C2080.83 8.41098 2119.77 10.2612 2158.69 12.3914C2185.13 13.8416 2211.56 15.6117 2237.96 17.6319C2268.5 19.9622 2299.04 22.5725 2329.54 25.3128C2354.57 27.563 2379.61 29.9432 2404.59 32.6935C2434.69 36.0039 2464.77 39.6243 2494.83 43.3546C2516.62 46.0649 2538.37 49.1953 2560.13 52.1356V1134.11C2545.64 1134.03 2531.14 1133.96 2516.64 1133.88C2514.48 1133.87 2512.3 1133.88 2510.15 1133.72C2476.45 1131.19 2442.78 1127.96 2409.02 1126.26C2357.44 1123.66 2305.82 1121.51 2254.19 1120.29C2189.22 1118.75 2124.24 1117.99 2059.25 1117.53C2000.43 1117.12 1941.59 1117.32 1882.78 1117.69C1816.29 1118.11 1749.8 1118.66 1683.31 1119.77C1579.51 1121.51 1475.71 1123.52 1371.93 1125.92C1307.83 1127.4 1243.76 1129.62 1179.68 1131.85C1131.06 1133.54 1082.47 1136 1033.85 1137.71C978.562 1139.65 923.275 1141.52 867.968 1142.74C799.33 1144.26 730.681 1145.06 662.033 1146.23C656.062 1146.33 650.101 1146.81 644.13 1147.12H424.133C422.333 1146.89 420.532 1146.47 418.732 1146.45C381.077 1145.89 343.423 1145.69 305.778 1144.79C245.991 1143.36 186.203 1141.54 126.426 1139.74C107.943 1139.18 89.481 1138.17 71.0087 1137.34C47.3858 1136.28 23.7628 1135.2 0.129883 1134.13V1134.1Z" fill="black"/>
</svg>
