<?xml version="1.0" encoding="UTF-8"?><svg  xmlns="http://www.w3.org/2000/svg" viewBox="0 0 512 512"><g><path fill="white" fill-opacity="0.8" d="M369.78,512H85.33c-22.79,0-44.22-8.88-60.34-24.99S0,449.46,0,426.67V142.22c0-22.79,8.88-44.22,24.99-60.34,16.12-16.12,37.55-24.99,60.34-24.99h113.78c15.71,0,28.44,12.73,28.44,28.44s-12.73,28.44-28.44,28.44h-113.78c-7.6,0-14.74,2.96-20.11,8.33-5.37,5.37-8.33,12.51-8.33,20.11v284.44c0,7.6,2.96,14.74,8.33,20.11,5.37,5.37,12.51,8.33,20.11,8.33h284.44c7.6,0,14.74-2.96,20.11-8.33,5.37-5.37,8.33-12.51,8.33-20.11v-113.78c0-15.71,12.74-28.44,28.45-28.44s28.45,12.73,28.45,28.44v113.78c0,22.79-8.88,44.22-24.99,60.34-16.12,16.12-37.55,24.99-60.34,24.99h0ZM199.11,341.33c-7.28,0-14.56-2.78-20.11-8.33-11.11-11.11-11.11-29.12,0-40.23L414.88,56.89h-101.99c-15.71,0-28.44-12.73-28.44-28.44S297.18,0,312.89,0h170.67c3.93,0,7.68.8,11.09,2.24,3.18,1.35,6.17,3.29,8.78,5.85t0,0s.04.04.06.06c0,0,.01.01.02.02.01.01.03.03.04.04,0,0,.02.02.03.03.01.01.02.02.03.03.02.02.04.04.06.06.02.02.04.04.06.06.01,0,.02.02.03.03.01,0,.02.02.03.03.02.01.03.03.04.04,0,0,.01.01.02.02.02.02.04.04.06.06,0,0,0,0,0,0,2.55,2.62,4.5,5.6,5.85,8.78,1.44,3.41,2.24,7.15,2.24,11.09v170.67c0,15.71-12.74,28.44-28.45,28.44s-28.44-12.73-28.44-28.44v-101.99l-235.89,235.89c-5.55,5.55-12.83,8.33-20.11,8.33h0Z"/></g></svg>