<svg width="1080" height="2494" viewBox="0 0 1080 2494" fill="none" xmlns="http://www.w3.org/2000/svg">
<path d="M0 2486.9V41.9937C23.8027 42.6038 47.5954 43.5539 71.3981 43.7639C116.533 44.1639 161.668 44.3739 206.804 44.2439C250.438 44.1239 294.073 43.7139 337.708 42.9838C376.493 42.3337 415.277 41.2836 454.042 40.0435C486.795 38.9934 519.539 37.5433 552.273 36.0232C576.176 34.9131 600.068 33.533 623.951 32.0428C648.314 30.5227 672.657 28.8025 697.009 27.0324C718.362 25.4823 739.694 23.7321 761.037 22.092C782.879 20.4118 804.721 18.7117 826.574 17.0815C845.116 15.7014 863.668 14.4213 882.22 13.0912C905.383 11.421 928.536 9.71086 951.698 8.06071C970.75 6.70059 989.793 5.24046 1008.85 4.13036C1030.1 2.90026 1051.36 2.04018 1072.61 0.960085C1074.39 0.870077 1076.15 0.330029 1077.93 0C1078.6 0.330029 1079.71 0.550049 1079.84 1.02009C1080.13 2.11019 1079.93 3.33029 1079.93 4.5004V2489.91C1061.3 2490.54 1042.67 2491.34 1024.03 2491.75C986.892 2492.57 949.748 2493.63 912.614 2493.77C820.823 2494.12 729.023 2494.57 637.272 2490.93C617.98 2490.16 598.668 2489.71 579.376 2488.96C546.282 2487.67 513.198 2486.15 480.105 2484.96C456.142 2484.1 432.169 2483.18 408.186 2483.05C344.049 2482.69 279.912 2482.57 215.775 2482.68C180.961 2482.74 146.147 2483.42 111.333 2483.94C95.3508 2484.18 79.369 2484.71 63.3872 2485.14C42.2648 2485.71 21.1324 2486.32 0.0100011 2486.91L0 2486.9Z" fill="black"/>
</svg>
